<?xml version="1.0" encoding="UTF-8" standalone="no"?>
<svg xmlns="http://www.w3.org/2000/svg" width="101px" height="129px">
    <title>Ole the Lion</title>
    <description>The St. Olaf Lion</description>
    <g id="lion" fill="transparent" scale="2">
        <path d="M66.3948,-0.1229 C67.5608,1.2351 66.5828,2.8661 67.4778,4.4381 C67.9928,5.3621 69.0248,5.3061 69.6498,6.1781 C70.6548,7.5881 70.7348,8.7811 70.7348,10.5221 L70.7348,12.6921 C70.7348,14.9161 72.9068,15.7901 72.9068,18.0131 C72.9068,19.5341 71.3868,20.0791 71.3868,21.5961 C71.3868,24.6921 74.8618,25.6671 74.8618,28.7661 C74.8618,29.4141 74.0738,29.5241 73.7748,30.0671 C73.0988,31.2611 73.3428,32.2641 73.3428,33.6481 C73.3428,35.6581 74.2118,36.7451 74.2118,38.7521 C74.2118,39.7861 73.2608,40.0821 72.6898,40.9261 C71.3328,42.9361 70.4098,44.0211 69.2138,46.1371 C68.5118,47.4161 66.6108,47.4671 66.6108,48.9641 C66.6108,50.9141 68.6178,51.3241 69.4328,53.0891 C71.5248,57.6231 72.9068,60.4711 72.9068,65.4681 L72.9068,68.2901 C72.9068,69.2141 73.6658,69.5411 74.2118,70.2441 C75.3778,71.7091 75.2438,73.0431 75.9488,74.8081 C77.0058,77.4651 77.5228,80.6711 80.3998,80.6711 C85.9918,80.6711 87.4598,73.7761 87.4598,68.1831 C87.4598,62.8071 83.9848,60.1991 83.9848,54.8271 C83.9848,52.0831 84.7178,50.5371 85.2878,47.8771 C86.9158,40.5191 88.6538,36.3631 92.4538,29.8491 C95.2508,25.0431 97.2308,21.9491 97.2308,16.3851 C97.2308,11.6341 96.0088,5.7451 91.2598,5.7451 C88.0838,5.7451 86.3718,9.0811 86.3718,12.2581 C86.3718,13.4291 86.5648,15.0811 85.3968,15.0811 C85.0968,15.0811 85.0428,14.6491 84.7438,14.6491 C83.8488,14.6491 84.0648,15.8951 83.5518,16.6031 C82.1358,18.5551 80.3728,18.7221 78.3378,20.0791 C83.1698,13.4781 82.3558,3.1381 90.4988,3.1381 C96.2288,3.1381 100.4888,8.1581 100.4888,13.8871 C100.4888,31.6161 90.7168,40.5761 90.7168,58.2981 L90.7168,65.6851 C90.7168,73.5851 88.6288,83.2791 80.7248,83.2791 C78.2298,83.2791 76.4088,82.3251 75.0798,80.2351 C74.2648,78.9311 74.2648,76.9741 72.6898,76.9741 C72.0928,76.9741 71.8208,77.6821 71.8208,78.2801 C71.8208,80.5061 74.4288,81.1611 74.4288,83.3841 C74.4288,86.6691 72.2578,88.1101 70.5178,90.8771 C68.7018,93.7821 67.9138,95.7921 65.3068,98.0421 C68.1028,101.8721 72.4738,103.0941 72.4738,107.8151 C72.4738,112.8931 65.3068,113.5981 65.3068,118.6761 L65.3068,121.9341 C65.3068,123.3441 64.6818,124.5941 63.3508,124.9751 C62.4018,125.2431 61.6968,124.7031 60.7428,124.9751 C59.3048,125.3821 58.5738,126.2771 57.0558,126.2771 C56.2128,126.2771 55.8338,125.6251 54.9908,125.6251 C52.1948,125.6251 50.8368,127.3651 48.0408,127.3651 C46.3298,127.3651 45.3248,125.5981 45.3248,123.8901 C45.3248,119.7061 48.6658,117.5091 52.4938,115.8531 C53.7968,115.3111 54.1468,114.0091 55.5328,113.6821 C58.3018,113.0011 61.3968,112.1901 61.3968,109.3371 C61.3968,106.5411 58.4358,105.9451 56.1828,104.3441 C55.1258,103.5801 55.2348,102.5231 54.4468,101.5171 C53.1178,99.8611 51.4078,99.6741 50.3198,97.8271 C49.9108,97.1231 50.4288,96.4161 50.1038,95.6541 C49.3158,93.8071 47.9338,92.9951 47.9338,90.9841 C47.9338,89.0031 49.6688,88.1891 49.6688,86.2061 C49.6688,84.9871 48.7198,83.9271 47.4968,83.9271 C45.2178,83.9271 43.5618,85.6111 43.1528,87.8361 C42.6898,90.2241 43.6978,91.7721 43.1528,94.1371 C42.8288,95.6261 41.8768,96.3881 40.5478,97.1751 C39.5158,97.7711 39.1628,98.9131 37.9418,98.9131 C36.8858,98.9131 36.5028,98.0421 35.5528,97.6091 C32.4568,96.1691 30.5048,95.2221 27.0828,95.2221 C26.1058,95.2221 25.5628,95.6541 24.5848,95.6541 C22.5488,95.6541 22.7938,92.9951 21.6518,91.3091 C20.9458,90.2541 19.7528,90.1181 19.2648,88.9221 C18.8828,87.9721 19.1028,87.2111 18.6118,86.3181 C18.2588,85.6921 17.5288,85.5271 17.5288,84.7941 C17.5288,82.3781 18.8328,81.1321 18.8328,78.7151 C18.8328,78.1161 18.3668,77.8201 17.9608,77.4111 C18.6938,76.4621 19.3448,75.6761 20.5688,75.6761 C23.7418,75.6761 24.8038,78.7151 26.2148,81.5391 C26.9738,83.0841 28.3868,83.4131 29.0398,85.0141 C29.9608,87.2661 30.3928,90.0091 32.8378,90.0091 C34.7948,90.0091 35.5528,87.7271 35.5528,85.7741 C35.5528,83.2501 34.0308,82.0001 34.0308,79.4741 C34.0308,77.3031 34.1158,76.0841 34.4658,73.9351 C34.6018,73.0961 34.4398,72.2531 35.1188,71.7641 C36.0678,71.0851 37.1558,71.7091 38.1598,71.1151 C42.4738,68.5331 44.9468,65.9011 49.9948,65.9011 C52.1688,65.9011 53.5208,65.9821 55.5328,66.7701 C56.8898,67.3111 57.3248,68.7241 58.7908,68.7241 C59.4698,68.7241 59.4438,67.7761 59.4438,67.0971 C59.4438,61.6651 55.1548,58.2981 49.8858,56.9981 C46.8188,56.2361 44.4028,55.3411 43.1528,52.4371 C42.3658,50.5891 43.0188,47.6581 40.9818,47.6581 C39.7878,47.6581 39.6778,49.1511 38.5938,49.6131 C37.1558,50.2381 36.0428,49.4221 34.4658,49.6131 C33.5168,49.7191 33.1628,50.6981 32.1868,50.6981 C31.1568,50.6981 30.7208,49.8301 29.6888,49.8301 C29.0118,49.8301 28.7388,50.4801 28.0598,50.4801 C27.4918,50.4801 27.2188,50.0461 26.6488,50.0461 C26.0788,50.0461 25.7788,50.3721 25.3458,50.6981 L25.3458,53.9531 C24.3408,54.4161 23.6078,54.3951 22.5198,54.6071 C22.1148,53.5771 22.3888,52.7331 21.8698,51.7831 C21.1928,50.5631 19.5638,51.4321 18.3958,50.6981 C16.2248,49.3141 15.7888,47.1951 15.7888,44.6191 C15.7888,43.4771 14.9208,42.9361 14.9208,41.7931 C14.9208,40.3551 15.4648,39.2991 16.6608,38.5361 C17.5288,37.9941 18.8328,38.0481 18.8328,37.0161 C18.8328,35.5771 16.7408,36.0951 15.5728,35.2771 C14.8398,34.7631 15.1388,33.9231 14.7038,33.1081 C13.9718,31.6951 12.7488,31.0451 12.7488,29.4141 C12.7488,28.8171 13.4018,28.6011 13.4018,28.0051 C13.4018,27.0251 12.5318,26.5921 12.5318,25.6161 C12.5318,23.6341 15.3528,23.3591 15.3528,21.3801 C15.3528,19.4001 14.6748,18.3111 14.2678,16.3851 C14.1068,15.6501 14.1608,14.6491 13.4018,14.6491 C12.2598,14.6491 11.7998,15.5951 11.0128,16.3851 C8.9208,18.4751 8.0508,20.0511 6.6678,22.6821 C1.9718,20.8091 0.3708,16.4401 0.3708,11.3891 C0.3708,6.9111 1.7538,4.4671 3.4108,0.3151 C6.6388,2.7821 7.4828,6.8281 11.5528,6.8281 C12.4788,6.8281 12.0978,5.4711 12.0978,4.5471 C12.0978,3.7611 12.9388,3.3541 13.7248,3.3541 C15.5168,3.3541 14.8938,6.1781 16.4408,7.0461 C17.8828,7.8601 20.1318,7.6431 20.1318,9.3281 C20.1318,11.1471 17.5288,11.4171 17.5288,13.2351 C17.5288,15.1631 18.0948,16.2221 18.3958,18.1231 C18.5318,18.9631 18.3418,19.8331 19.0488,20.2951 C21.0008,21.5961 23.0098,20.9991 24.6918,22.6821 C25.5878,23.5771 25.6448,24.5031 26.6488,25.2881 C28.7388,26.9181 30.7208,26.4821 32.9458,27.8971 C34.3578,28.7881 34.3038,30.9361 35.9868,30.9361 C37.0168,30.9361 37.1558,29.6051 38.1598,29.4141 C41.8488,28.7091 43.7238,26.8091 47.4968,26.8091 C50.6488,26.8091 52.9258,23.9841 52.9258,20.8351 C52.9258,19.7241 51.8988,19.3451 50.9728,18.7731 C50.2658,18.3391 50.0778,17.4711 49.2368,17.4711 C48.5578,17.4711 48.2878,18.1231 47.6048,18.1231 C45.7878,18.1231 44.0228,16.9011 44.0228,15.0811 C44.0228,13.8331 44.6768,13.1251 45.5448,12.2581 C46.4668,12.8531 46.8738,13.4291 47.9338,13.7781 L49.2368,13.7781 C49.2368,13.5881 49.4528,13.5331 49.4528,13.3421 C49.4528,12.5031 48.6378,12.2581 47.9338,11.8241 C44.0778,9.4061 37.2898,11.4171 37.2898,6.8281 C37.2898,5.0631 38.2128,3.5711 39.8978,3.1381 C39.4888,4.1951 38.8098,4.7111 38.8098,5.8531 C38.8098,8.2951 41.6878,8.7561 44.0228,9.4351 C45.5988,9.8971 46.6018,10.2231 47.9338,11.1711 C48.8538,11.8241 48.8288,13.3421 49.9948,13.3421 C50.8648,13.3421 51.4078,12.4761 51.4078,11.6081 L51.4078,9.8671 C51.4078,8.4291 49.5608,7.9701 48.1488,8.1321 C47.7178,7.0161 47.0648,6.4211 47.0648,5.2001 C47.0648,3.1931 47.2258,0.5291 49.2368,0.5291 C51.7858,0.5291 52.9818,2.2691 55.5328,2.2691 C56.8628,2.2691 57.3528,0.9651 58.6828,0.9651 C60.5548,0.9651 61.3678,2.4851 63.2418,2.4851 C64.8438,2.4851 65.1168,0.8031 66.3948,-0.1229"></path>
    </g>
</svg>
