<svg xmlns="http://www.w3.org/2000/svg" width="836" height="1432" preserveAspectRatio="xMidYMid meet" version="1.0" viewBox="0 0 627 1074"><metadata>Created by potrace 1.16, written by Peter Selinger 2001-2019</metadata><g fill="#000" stroke="none"><path d="M12767 42800 c-15 -12 -29 -35 -32 -53 -7 -41 -105 -3161 -105 -3332 1 -71 -37 -1392 -85 -2935 -47 -1543 -89 -2992 -95 -3220 l-10 -415 20 -180 c16 -157 46 -354 189 -1255 24 -147 28 -196 21 -238 -24 -140 -115 -229 -259 -253 -65 -10 -386 24 -533 56 -172 38 -330 -7 -453 -130 -104 -104 -146 -218 -143 -390 2 -115 -17 -176 -76 -244 -46 -52 -102 -73 -479 -181 -636 -182 -731 -222 -1182 -502 -66 -41 -271 -159 -455 -263 -184 -104 -389 -222 -455 -263 -66 -41 -248 -148 -405 -237 -157 -89 -395 -227 -530 -307 -135 -79 -308 -180 -385 -223 -77 -43 -203 -117 -280 -165 -77 -48 -291 -171 -475 -275 -184 -104 -389 -222 -455 -263 -66 -41 -250 -149 -409 -239 -159 -91 -386 -223 -505 -293 -119 -70 -333 -194 -476 -275 -143 -82 -357 -205 -475 -275 -118 -70 -331 -193 -474 -275 -142 -81 -396 -228 -565 -327 -610 -360 -760 -448 -1016 -593 -143 -82 -381 -220 -530 -308 -148 -88 -398 -233 -555 -322 -232 -132 -607 -351 -857 -499 -128 -76 -99 -244 45 -263 43 -6 253 75 583 225 97 44 391 169 655 277 263 108 578 239 699 290 121 51 348 146 505 210 346 142 685 285 840 355 63 29 268 115 455 192 187 77 426 176 530 221 105 44 361 151 570 237 665 275 914 379 1145 480 124 54 277 119 340 145 63 26 189 79 280 117 91 39 419 175 730 303 839 347 1100 456 1360 570 289 126 422 182 1000 420 876 361 870 357 1155 564 27 20 61 37 75 38 145 8 193 1 260 -42 79 -51 119 -123 132 -239 7 -57 -62 -4272 -231 -14066 -133 -7692 -241 -14024 -241 -14072 l0 -88 990 0 990 0 0 68 c0 37 -124 6646 -274 14687 -179 9511 -272 14639 -266 14674 31 186 186 289 404 268 221 -21 244 -25 288 -47 69 -34 99 -69 678 -775 750 -914 761 -927 937 -1071 82 -67 198 -166 258 -220 61 -54 313 -271 560 -483 248 -211 506 -435 575 -496 69 -61 186 -161 260 -222 75 -61 185 -155 245 -209 61 -54 313 -271 560 -483 248 -211 506 -435 575 -496 69 -61 186 -161 260 -222 75 -61 185 -155 245 -209 61 -54 313 -271 560 -483 248 -212 509 -437 580 -500 72 -64 191 -166 265 -227 74 -61 259 -220 410 -355 152 -134 338 -295 413 -357 76 -62 183 -154 239 -204 56 -50 305 -264 552 -476 248 -212 507 -436 576 -497 69 -61 187 -162 264 -225 76 -62 182 -153 236 -201 164 -147 683 -590 715 -610 75 -47 171 15 151 97 -5 17 -159 182 -419 447 -227 230 -664 681 -971 1001 -308 319 -778 804 -1045 1076 -268 272 -657 673 -866 890 -209 217 -605 625 -880 905 -275 281 -671 688 -880 905 -209 217 -605 625 -880 905 -275 281 -727 746 -1004 1035 -876 913 -937 970 -1311 1230 -74 52 -225 162 -335 245 -182 137 -353 260 -645 466 -231 162 -260 208 -264 426 -4 202 -63 316 -211 410 -259 163 -321 272 -290 513 8 63 22 189 30 280 9 91 34 305 55 475 22 171 53 454 70 629 l30 319 -60 956 c-33 526 -67 1024 -75 1106 -8 83 -64 940 -125 1905 -61 965 -117 1823 -125 1905 -8 83 -64 938 -125 1900 -100 1591 -130 2018 -146 2097 -12 60 -88 86 -137 48z" transform="translate(0.000000,1074.000000) scale(0.025000,-0.025000)"/></g></svg>